<svg width="24" height="24" viewBox="0 0 24 24" fill="none" xmlns="http://www.w3.org/2000/svg">
  <g fill="#0052CC">
    <!-- Left ribbon -->
    <path d="M2 14 C2 14 4 8 8 8 C12 8 14 12 14 12 L10 14 C10 14 9 11 8 11 C7 11 6 13 6 13 L2 14 Z"/>
    
    <!-- Right ribbon -->
    <path d="M22 10 C22 10 20 16 16 16 C12 16 10 12 10 12 L14 10 C14 10 15 13 16 13 C17 13 18 11 18 11 L22 10 Z"/>
    
    <!-- Left ribbon upper part -->
    <path d="M2 6 C2 6 3 4 5 4 C7 4 9 6 11 10 L7 12 C7 12 6 8 5 8 C4 8 3 9 3 9 L2 6 Z"/>
    
    <!-- Right ribbon lower part -->
    <path d="M22 18 C22 18 21 20 19 20 C17 20 15 18 13 14 L17 12 C17 12 18 16 19 16 C20 16 21 15 21 15 L22 18 Z"/>
  </g>
</svg>
